<?xml version="1.0" encoding="UTF-8" standalone="no"?><svg width="2228.75" height="6497.5" viewBox="0 0 2228.75 6497.5" xmlns="http://www.w3.org/2000/svg">
<defs>
<marker id="startarrow" markerWidth="10" markerHeight="7"
refX="0" refY="3.5" orient="auto">
<polygon points="10 0, 10 7, 0 3.5" fill="context-stroke" />
</marker>
<marker id="endarrow" markerWidth="10" markerHeight="7"
refX="10" refY="3.5" orient="auto">
<polygon points="0 0, 10 3.5, 0 7" fill="context-stroke" />
</marker>

</defs><style>
.a15 { font-size: 15px; font-family: Times, serif; }
.a20 { font-size: 20px; font-family: Times, serif; }
</style>
<g >

            <rect x="1112.5" y="30" width="255" height="125" fill="#ffffffff" 
            stroke-width="2" stroke="#000000ff" rx="0"  />

            </g>
<text dominant-baseline="middle" text-anchor="middle" 
            x="1240" y="47.5" class="a15"><tspan x = "1240" dy="1.0em">(0, ε)</tspan><tspan x = "1240" dy="1.0em">Pl: 0</tspan><tspan x = "1240" dy="1.0em">[]</tspan><tspan x = "1240" dy="1.0em">((0, ε), 0, [], ε, true)</tspan><tspan x = "1240" dy="1.0em">ε</tspan></text><g >

            <rect x="1082.5" y="255" width="315" height="125" fill="#ffffffff" 
            stroke-width="2" stroke="#000000ff" rx="0"  />

            </g>
<text dominant-baseline="middle" text-anchor="middle" 
            x="1240" y="272.5" class="a15"><tspan x = "1240" dy="1.0em">(0, ε)</tspan><tspan x = "1240" dy="1.0em">Pl: 37</tspan><tspan x = "1240" dy="1.0em">[&apos;main&apos;/0 |-&gt; ((0, ε), &apos;main&apos;/0, ε)]</tspan><tspan x = "1240" dy="1.0em">((0, ε), 0, [], ε, true)</tspan><tspan x = "1240" dy="1.0em">ε</tspan></text><g >

            <rect x="1017.5" y="480" width="445" height="125" fill="#ffffffff" 
            stroke-width="2" stroke="#000000ff" rx="0"  />

            </g>
<text dominant-baseline="middle" text-anchor="middle" 
            x="1240" y="497.5" class="a15"><tspan x = "1240" dy="1.0em">(0, ε)</tspan><tspan x = "1240" dy="1.0em">Pl: 40</tspan><tspan x = "1240" dy="1.0em">[&apos;main&apos;/0 |-&gt; ((0, ε), &apos;main&apos;/0, ε)]</tspan><tspan x = "1240" dy="1.0em">((0, ε), 37, [&apos;main&apos;/0 |-&gt; ((0, ε), &apos;main&apos;/0, ε)], ε, false)</tspan><tspan x = "1240" dy="1.0em">ε</tspan></text><g >

            <rect x="1022.5" y="705" width="435" height="125" fill="#ffffffff" 
            stroke-width="2" stroke="#000000ff" rx="0"  />

            </g>
<text dominant-baseline="middle" text-anchor="middle" 
            x="1240" y="722.5" class="a15"><tspan x = "1240" dy="1.0em">(0, ε)</tspan><tspan x = "1240" dy="1.0em">Pl: 74</tspan><tspan x = "1240" dy="1.0em">[0 |-&gt; ((0, ε), 0, ε), &apos;main&apos;/0 |-&gt; ((0, ε), &apos;main&apos;/0, ε)]</tspan><tspan x = "1240" dy="1.0em">((0, ε), 0, [], ε, true)</tspan><tspan x = "1240" dy="1.0em">ε</tspan></text><g >

            <rect x="957.5" y="930" width="565" height="125" fill="#ffffffff" 
            stroke-width="2" stroke="#000000ff" rx="0"  />

            </g>
<text dominant-baseline="middle" text-anchor="middle" 
            x="1240" y="947.5" class="a15"><tspan x = "1240" dy="1.0em">(0, ε)</tspan><tspan x = "1240" dy="1.0em">Pl: 77</tspan><tspan x = "1240" dy="1.0em">[0 |-&gt; ((0, ε), 0, ε), &apos;main&apos;/0 |-&gt; ((0, ε), &apos;main&apos;/0, ε)]</tspan><tspan x = "1240" dy="1.0em">((0, ε), 74, [0 |-&gt; ((0, ε), 0, ε), &apos;main&apos;/0 |-&gt; ((0, ε), &apos;main&apos;/0, ε)], ε, false)</tspan><tspan x = "1240" dy="1.0em">ε</tspan></text><g >

            <rect x="1352.25" y="1155" width="565" height="125" fill="#ffffffff" 
            stroke-width="2" stroke="#000000ff" rx="0"  />

            </g>
<text dominant-baseline="middle" text-anchor="middle" 
            x="1634.75" y="1172.5" class="a15"><tspan x = "1634.75" dy="1.0em">(0, ε)</tspan><tspan x = "1634.75" dy="1.0em">Pid: (77, ε)</tspan><tspan x = "1634.75" dy="1.0em">[0 |-&gt; ((0, ε), 0, ε), &apos;main&apos;/0 |-&gt; ((0, ε), &apos;main&apos;/0, ε)]</tspan><tspan x = "1634.75" dy="1.0em">((0, ε), 74, [0 |-&gt; ((0, ε), 0, ε), &apos;main&apos;/0 |-&gt; ((0, ε), &apos;main&apos;/0, ε)], ε, false)</tspan><tspan x = "1634.75" dy="1.0em">ε</tspan></text><g >

            <rect x="731.25" y="2505" width="315" height="125" fill="#ffffffff" 
            stroke-width="2" stroke="#000000ff" rx="0"  />

            </g>
<text dominant-baseline="middle" text-anchor="middle" 
            x="888.75" y="2522.5" class="a15"><tspan x = "888.75" dy="1.0em">(77, ε)</tspan><tspan x = "888.75" dy="1.0em">Pl: 46</tspan><tspan x = "888.75" dy="1.0em">[&apos;main&apos;/0 |-&gt; ((0, ε), &apos;main&apos;/0, ε)]</tspan><tspan x = "888.75" dy="1.0em">((0, ε), 0, [], ε, true)</tspan><tspan x = "888.75" dy="1.0em">ε</tspan></text><g >

            <rect x="1347.25" y="1380" width="575" height="125" fill="#ffffffff" 
            stroke-width="2" stroke="#000000ff" rx="0"  />

            </g>
<text dominant-baseline="middle" text-anchor="middle" 
            x="1634.75" y="1397.5" class="a15"><tspan x = "1634.75" dy="1.0em">(0, ε)</tspan><tspan x = "1634.75" dy="1.0em">Pl: 84</tspan><tspan x = "1634.75" dy="1.0em">[&apos;P&apos; |-&gt; ((0, ε), &apos;P&apos;, ε), 0 |-&gt; ((0, ε), 0, ε), &apos;main&apos;/0 |-&gt; ((0, ε), &apos;main&apos;/0, ε)]</tspan><tspan x = "1634.75" dy="1.0em">((0, ε), 0, [], ε, true)</tspan><tspan x = "1634.75" dy="1.0em">ε</tspan></text><g >

            <rect x="1282.25" y="1605" width="705" height="125" fill="#ffffffff" 
            stroke-width="2" stroke="#000000ff" rx="0"  />

            </g>
<text dominant-baseline="middle" text-anchor="middle" 
            x="1634.75" y="1622.5" class="a15"><tspan x = "1634.75" dy="1.0em">(0, ε)</tspan><tspan x = "1634.75" dy="1.0em">Pl: 87</tspan><tspan x = "1634.75" dy="1.0em">[&apos;P&apos; |-&gt; ((0, ε), &apos;P&apos;, ε), 0 |-&gt; ((0, ε), 0, ε), &apos;main&apos;/0 |-&gt; ((0, ε), &apos;main&apos;/0, ε)]</tspan><tspan x = "1634.75" dy="1.0em">((0, ε), 84, [&apos;P&apos; |-&gt; ((0, ε), &apos;P&apos;, ε), 0 |-&gt; ((0, ε), 0, ε), &apos;main&apos;/0 |-&gt; ((0, ε), &apos;main&apos;/0, ε)], ε, false)</tspan><tspan x = "1634.75" dy="1.0em">ε</tspan></text><g >

            <rect x="1282.25" y="1830" width="705" height="125" fill="#ffffffff" 
            stroke-width="2" stroke="#000000ff" rx="0"  />

            </g>
<text dominant-baseline="middle" text-anchor="middle" 
            x="1634.75" y="1847.5" class="a15"><tspan x = "1634.75" dy="1.0em">(0, ε)</tspan><tspan x = "1634.75" dy="1.0em">Pid: (0, ε)</tspan><tspan x = "1634.75" dy="1.0em">[&apos;P&apos; |-&gt; ((0, ε), &apos;P&apos;, ε), 0 |-&gt; ((0, ε), 0, ε), &apos;main&apos;/0 |-&gt; ((0, ε), &apos;main&apos;/0, ε)]</tspan><tspan x = "1634.75" dy="1.0em">((0, ε), 84, [&apos;P&apos; |-&gt; ((0, ε), &apos;P&apos;, ε), 0 |-&gt; ((0, ε), 0, ε), &apos;main&apos;/0 |-&gt; ((0, ε), &apos;main&apos;/0, ε)], ε, false)</tspan><tspan x = "1634.75" dy="1.0em">ε</tspan></text><g >

            <rect x="1287.25" y="2055" width="695" height="125" fill="#ffffffff" 
            stroke-width="2" stroke="#000000ff" rx="0"  />

            </g>
<text dominant-baseline="middle" text-anchor="middle" 
            x="1634.75" y="2072.5" class="a15"><tspan x = "1634.75" dy="1.0em">(0, ε)</tspan><tspan x = "1634.75" dy="1.0em">Pl: 92</tspan><tspan x = "1634.75" dy="1.0em">[&apos;P&apos; |-&gt; ((0, ε), &apos;P&apos;, ε), 0 |-&gt; ((0, ε), 0, ε), 2 |-&gt; ((0, ε), 2, ε), &apos;main&apos;/0 |-&gt; ((0, ε), &apos;main&apos;/0, ε)]</tspan><tspan x = "1634.75" dy="1.0em">((0, ε), 0, [], ε, true)</tspan><tspan x = "1634.75" dy="1.0em">ε</tspan></text><g >

            <rect x="1222.25" y="2280" width="825" height="125" fill="#ffffffff" 
            stroke-width="2" stroke="#000000ff" rx="0"  />

            </g>
<text dominant-baseline="middle" text-anchor="middle" 
            x="1634.75" y="2297.5" class="a15"><tspan x = "1634.75" dy="1.0em">(0, ε)</tspan><tspan x = "1634.75" dy="1.0em">Pl: 93</tspan><tspan x = "1634.75" dy="1.0em">[&apos;P&apos; |-&gt; ((0, ε), &apos;P&apos;, ε), 0 |-&gt; ((0, ε), 0, ε), 2 |-&gt; ((0, ε), 2, ε), &apos;main&apos;/0 |-&gt; ((0, ε), &apos;main&apos;/0, ε)]</tspan><tspan x = "1634.75" dy="1.0em">((0, ε), 92, [&apos;P&apos; |-&gt; ((0, ε), &apos;P&apos;, ε), 0 |-&gt; ((0, ε), 0, ε), 2 |-&gt; ((0, ε), 2, ε), &apos;main&apos;/0 |-&gt; ((0, ε), &apos;main&apos;/0, ε)], ε, false)</tspan><tspan x = "1634.75" dy="1.0em">ε</tspan></text><g >

            <rect x="1398.75" y="2730" width="825" height="125" fill="#ffffffff" 
            stroke-width="2" stroke="#000000ff" rx="0"  />

            </g>
<text dominant-baseline="middle" text-anchor="middle" 
            x="1811.25" y="2747.5" class="a15"><tspan x = "1811.25" dy="1.0em">(0, ε)</tspan><tspan x = "1811.25" dy="1.0em">Pid: (0, ε)</tspan><tspan x = "1811.25" dy="1.0em">[&apos;P&apos; |-&gt; ((0, ε), &apos;P&apos;, ε), 0 |-&gt; ((0, ε), 0, ε), 2 |-&gt; ((0, ε), 2, ε), &apos;main&apos;/0 |-&gt; ((0, ε), &apos;main&apos;/0, ε)]</tspan><tspan x = "1811.25" dy="1.0em">((0, ε), 92, [&apos;P&apos; |-&gt; ((0, ε), &apos;P&apos;, ε), 0 |-&gt; ((0, ε), 0, ε), 2 |-&gt; ((0, ε), 2, ε), &apos;main&apos;/0 |-&gt; ((0, ε), &apos;main&apos;/0, ε)], ε, false)</tspan><tspan x = "1811.25" dy="1.0em">ε</tspan></text><g >

            <rect x="992.5" y="2955" width="695" height="125" fill="#ffffffff" 
            stroke-width="2" stroke="#000000ff" rx="0"  />

            </g>
<text dominant-baseline="middle" text-anchor="middle" 
            x="1340" y="2972.5" class="a15"><tspan x = "1340" dy="1.0em">(0, ε)</tspan><tspan x = "1340" dy="1.0em">Pl: 102</tspan><tspan x = "1340" dy="1.0em">[&apos;P&apos; |-&gt; ((0, ε), &apos;P&apos;, ε), 0 |-&gt; ((0, ε), 0, ε), 2 |-&gt; ((0, ε), 2, ε), &apos;main&apos;/0 |-&gt; ((0, ε), &apos;main&apos;/0, ε)]</tspan><tspan x = "1340" dy="1.0em">((0, ε), 0, [], ε, true)</tspan><tspan x = "1340" dy="1.0em">ε</tspan></text><g >

            <rect x="791.25" y="2730" width="460" height="125" fill="#ffffffff" 
            stroke-width="2" stroke="#000000ff" rx="0"  />

            </g>
<text dominant-baseline="middle" text-anchor="middle" 
            x="1021.25" y="2747.5" class="a15"><tspan x = "1021.25" dy="1.0em">(77, ε)</tspan><tspan x = "1021.25" dy="1.0em">Pl: 52</tspan><tspan x = "1021.25" dy="1.0em">[&apos;X&apos; |-&gt; ((77, ε), &apos;X&apos;, ε), &apos;main&apos;/0 |-&gt; ((0, ε), &apos;main&apos;/0, ε)]</tspan><tspan x = "1021.25" dy="1.0em">((0, ε), 0, [], ε, true)</tspan><tspan x = "1021.25" dy="1.0em">ε</tspan></text><g >

            <rect x="472.5" y="2955" width="460" height="125" fill="#ffffffff" 
            stroke-width="2" stroke="#000000ff" rx="0"  />

            </g>
<text dominant-baseline="middle" text-anchor="middle" 
            x="702.5" y="2972.5" class="a15"><tspan x = "702.5" dy="1.0em">(77, ε)</tspan><tspan x = "702.5" dy="1.0em">Pl: 59</tspan><tspan x = "702.5" dy="1.0em">[&apos;X&apos; |-&gt; ((77, ε), &apos;X&apos;, ε), &apos;main&apos;/0 |-&gt; ((0, ε), &apos;main&apos;/0, ε)]</tspan><tspan x = "702.5" dy="1.0em">((0, ε), 0, [], ε, true)</tspan><tspan x = "702.5" dy="1.0em">ε</tspan></text><g >

            <rect x="992.5" y="3180" width="695" height="125" fill="#ffffffff" 
            stroke-width="2" stroke="#000000ff" rx="0"  />

            </g>
<text dominant-baseline="middle" text-anchor="middle" 
            x="1340" y="3197.5" class="a15"><tspan x = "1340" dy="1.0em">(0, ε)</tspan><tspan x = "1340" dy="1.0em">Pl: 108</tspan><tspan x = "1340" dy="1.0em">[&apos;P&apos; |-&gt; ((0, ε), &apos;P&apos;, ε), 0 |-&gt; ((0, ε), 0, ε), 2 |-&gt; ((0, ε), 2, ε), &apos;main&apos;/0 |-&gt; ((0, ε), &apos;main&apos;/0, ε)]</tspan><tspan x = "1340" dy="1.0em">((0, ε), 0, [], ε, true)</tspan><tspan x = "1340" dy="1.0em">ε</tspan></text><g >

            <rect x="925" y="3405" width="830" height="125" fill="#ffffffff" 
            stroke-width="2" stroke="#000000ff" rx="0"  />

            </g>
<text dominant-baseline="middle" text-anchor="middle" 
            x="1340" y="3422.5" class="a15"><tspan x = "1340" dy="1.0em">(0, ε)</tspan><tspan x = "1340" dy="1.0em">Pl: 111</tspan><tspan x = "1340" dy="1.0em">[&apos;P&apos; |-&gt; ((0, ε), &apos;P&apos;, ε), 0 |-&gt; ((0, ε), 0, ε), 2 |-&gt; ((0, ε), 2, ε), &apos;main&apos;/0 |-&gt; ((0, ε), &apos;main&apos;/0, ε)]</tspan><tspan x = "1340" dy="1.0em">((0, ε), 108, [&apos;P&apos; |-&gt; ((0, ε), &apos;P&apos;, ε), 0 |-&gt; ((0, ε), 0, ε), 2 |-&gt; ((0, ε), 2, ε), &apos;main&apos;/0 |-&gt; ((0, ε), &apos;main&apos;/0, ε)], ε, false)</tspan><tspan x = "1340" dy="1.0em">ε</tspan></text><g >

            <rect x="925" y="3630" width="830" height="125" fill="#ffffffff" 
            stroke-width="2" stroke="#000000ff" rx="0"  />

            </g>
<text dominant-baseline="middle" text-anchor="middle" 
            x="1340" y="3647.5" class="a15"><tspan x = "1340" dy="1.0em">(0, ε)</tspan><tspan x = "1340" dy="1.0em">Pid: (0, ε)</tspan><tspan x = "1340" dy="1.0em">[&apos;P&apos; |-&gt; ((0, ε), &apos;P&apos;, ε), 0 |-&gt; ((0, ε), 0, ε), 2 |-&gt; ((0, ε), 2, ε), &apos;main&apos;/0 |-&gt; ((0, ε), &apos;main&apos;/0, ε)]</tspan><tspan x = "1340" dy="1.0em">((0, ε), 108, [&apos;P&apos; |-&gt; ((0, ε), &apos;P&apos;, ε), 0 |-&gt; ((0, ε), 0, ε), 2 |-&gt; ((0, ε), 2, ε), &apos;main&apos;/0 |-&gt; ((0, ε), &apos;main&apos;/0, ε)], ε, false)</tspan><tspan x = "1340" dy="1.0em">ε</tspan></text><g >

            <rect x="30" y="3855" width="815" height="125" fill="#ffffffff" 
            stroke-width="2" stroke="#000000ff" rx="0"  />

            </g>
<text dominant-baseline="middle" text-anchor="middle" 
            x="437.5" y="3872.5" class="a15"><tspan x = "437.5" dy="1.0em">(0, ε)</tspan><tspan x = "437.5" dy="1.0em">Pl: 116</tspan><tspan x = "437.5" dy="1.0em">[&apos;P&apos; |-&gt; ((0, ε), &apos;P&apos;, ε), 0 |-&gt; ((0, ε), 0, ε), 2 |-&gt; ((0, ε), 2, ε), 3 |-&gt; ((0, ε), 3, ε), &apos;main&apos;/0 |-&gt; ((0, ε), &apos;main&apos;/0, ε)]</tspan><tspan x = "437.5" dy="1.0em">((0, ε), 0, [], ε, true)</tspan><tspan x = "437.5" dy="1.0em">ε</tspan></text><g >

            <rect x="30" y="4080" width="815" height="125" fill="#ffffffff" 
            stroke-width="2" stroke="#000000ff" rx="0"  />

            </g>
<text dominant-baseline="middle" text-anchor="middle" 
            x="437.5" y="4097.5" class="a15"><tspan x = "437.5" dy="1.0em">(0, ε)</tspan><tspan x = "437.5" dy="1.0em">Pid: (0, ε)</tspan><tspan x = "437.5" dy="1.0em">[&apos;P&apos; |-&gt; ((0, ε), &apos;P&apos;, ε), 0 |-&gt; ((0, ε), 0, ε), 2 |-&gt; ((0, ε), 2, ε), 3 |-&gt; ((0, ε), 3, ε), &apos;main&apos;/0 |-&gt; ((0, ε), &apos;main&apos;/0, ε)]</tspan><tspan x = "437.5" dy="1.0em">((0, ε), 0, [], ε, true)</tspan><tspan x = "437.5" dy="1.0em">ε</tspan></text><text dominant-baseline="middle" text-anchor="middle" 
            x="1135" y="185" class="a20"><tspan x = "1135" dy="1.0em">abs_module</tspan></text><text dominant-baseline="middle" text-anchor="middle" 
            x="1115" y="410" class="a20"><tspan x = "1115" dy="1.0em">abs_push_let</tspan></text><text dominant-baseline="middle" text-anchor="middle" 
            x="1045" y="635" class="a20"><tspan x = "1045" dy="1.0em">abs_pop_let_closure</tspan></text><text dominant-baseline="middle" text-anchor="middle" 
            x="1115" y="860" class="a20"><tspan x = "1115" dy="1.0em">abs_push_let</tspan></text><text dominant-baseline="middle" text-anchor="middle" 
            x="1539.75" y="1085" class="a20"><tspan x = "1539.75" dy="1.0em">abs_spawn</tspan></text><text dominant-baseline="middle" text-anchor="middle" 
            x="793.75" y="2435" class="a20"><tspan x = "793.75" dy="1.0em">abs_spawn</tspan></text><text dominant-baseline="middle" text-anchor="middle" 
            x="1479.75" y="1310" class="a20"><tspan x = "1479.75" dy="1.0em">abs_pop_let_pid</tspan></text><text dominant-baseline="middle" text-anchor="middle" 
            x="1509.75" y="1535" class="a20"><tspan x = "1509.75" dy="1.0em">abs_push_let</tspan></text><text dominant-baseline="middle" text-anchor="middle" 
            x="1549.75" y="1760" class="a20"><tspan x = "1549.75" dy="1.0em">abs_self</tspan></text><text dominant-baseline="middle" text-anchor="middle" 
            x="1479.75" y="1985" class="a20"><tspan x = "1479.75" dy="1.0em">abs_pop_let_pid</tspan></text><text dominant-baseline="middle" text-anchor="middle" 
            x="1509.75" y="2210" class="a20"><tspan x = "1509.75" dy="1.0em">abs_push_seq</tspan></text><text dominant-baseline="middle" text-anchor="middle" 
            x="1726.25" y="2660" class="a20"><tspan x = "1726.25" dy="1.0em">abs_send</tspan></text><text dominant-baseline="middle" text-anchor="middle" 
            x="1176.75" y="2435" class="a20"><tspan x = "1176.75" dy="1.0em">abs_send</tspan></text><text dominant-baseline="middle" text-anchor="middle" 
            x="1696.25" y="2885" class="a20"><tspan x = "1696.25" dy="1.0em">abs_pop_seq</tspan></text><text dominant-baseline="middle" text-anchor="middle" 
            x="906.25" y="2660" class="a20"><tspan x = "906.25" dy="1.0em">abs_receive</tspan></text><text dominant-baseline="middle" text-anchor="middle" 
            x="776.875" y="2885" class="a20"><tspan x = "776.875" dy="1.0em">abs_send</tspan></text><text dominant-baseline="middle" text-anchor="middle" 
            x="1255" y="2885" class="a20"><tspan x = "1255" dy="1.0em">abs_send</tspan></text><text dominant-baseline="middle" text-anchor="middle" 
            x="1225" y="3110" class="a20"><tspan x = "1225" dy="1.0em">abs_receive</tspan></text><text dominant-baseline="middle" text-anchor="middle" 
            x="1215" y="3335" class="a20"><tspan x = "1215" dy="1.0em">abs_push_let</tspan></text><text dominant-baseline="middle" text-anchor="middle" 
            x="1255" y="3560" class="a20"><tspan x = "1255" dy="1.0em">abs_self</tspan></text><text dominant-baseline="middle" text-anchor="middle" 
            x="733.75" y="3785" class="a20"><tspan x = "733.75" dy="1.0em">abs_pop_let_pid</tspan></text><text dominant-baseline="middle" text-anchor="middle" 
            x="352.5" y="4010" class="a20"><tspan x = "352.5" dy="1.0em">abs_send</tspan></text><text dominant-baseline="middle" text-anchor="middle" 
            x="372.5" y="3565" class="a15"><tspan x = "372.5" dy="1.0em">abs_send</tspan></text><g >

            <path id="arrow0" d="M 1240 155 C 1240 185, 1240 175, 1240 205 S 1240 225, 1240 255 " stroke="#000000ff" stroke-width="2" stroke-dasharray="5,5"  marker-end="url(#endarrow)" 
            fill="transparent" />

            </g>
<text><textPath href="#arrow0" startOffset="50%" text-anchor="middle" class="a20"></textPath></text><g >

            <path id="arrow1" d="M 1240 380 C 1240 410, 1240 400, 1240 430 S 1240 450, 1240 480 " stroke="#000000ff" stroke-width="2" stroke-dasharray="5,5"  marker-end="url(#endarrow)" 
            fill="transparent" />

            </g>
<text><textPath href="#arrow1" startOffset="50%" text-anchor="middle" class="a20"></textPath></text><g >

            <path id="arrow2" d="M 1240 605 C 1240 635, 1240 625, 1240 655 S 1240 675, 1240 705 " stroke="#000000ff" stroke-width="2" stroke-dasharray="5,5"  marker-end="url(#endarrow)" 
            fill="transparent" />

            </g>
<text><textPath href="#arrow2" startOffset="50%" text-anchor="middle" class="a20"></textPath></text><g >

            <path id="arrow3" d="M 1240 830 C 1240 860, 1240 850, 1240 880 S 1240 900, 1240 930 " stroke="#000000ff" stroke-width="2" stroke-dasharray="5,5"  marker-end="url(#endarrow)" 
            fill="transparent" />

            </g>
<text><textPath href="#arrow3" startOffset="50%" text-anchor="middle" class="a20"></textPath></text><g >

            <path id="arrow4" d="M 1522.0833333333333 1055 C 1549.5043665711107 1067.1690975907297, 1634.75 1075, 1634.75 1105 S 1634.75 1125, 1634.75 1155 " stroke="#000000ff" stroke-width="2" stroke-dasharray="5,5"  marker-end="url(#endarrow)" 
            fill="transparent" />

            </g>
<text><textPath href="#arrow4" startOffset="50%" text-anchor="middle" class="a20"></textPath></text><g >

            <path id="arrow5" d="M 982.0833333333334 1055 C 955.6389342324699 1069.1666423754625, 888.75 1075, 888.75 1105 S 888.75 1187.5, 888.75 1217.5 S 888.75 1300, 888.75 1330 S 888.75 1412.5, 888.75 1442.5 S 888.75 1525, 888.75 1555 S 888.75 1637.5, 888.75 1667.5 S 888.75 1750, 888.75 1780 S 888.75 1862.5, 888.75 1892.5 S 888.75 1975, 888.75 2005 S 888.75 2087.5, 888.75 2117.5 S 888.75 2200, 888.75 2230 S 888.75 2312.5, 888.75 2342.5 S 888.75 2425, 888.75 2455 S 888.75 2475, 888.75 2505 " stroke="#000000ff" stroke-width="2" stroke-dasharray="5,5"  marker-end="url(#endarrow)" 
            fill="transparent" />

            </g>
<text><textPath href="#arrow5" startOffset="50%" text-anchor="middle" class="a20"></textPath></text><g >

            <path id="arrow6" d="M 1634.75 1280 C 1634.75 1310, 1634.75 1300, 1634.75 1330 S 1634.75 1350, 1634.75 1380 " stroke="#000000ff" stroke-width="2" stroke-dasharray="5,5"  marker-end="url(#endarrow)" 
            fill="transparent" />

            </g>
<text><textPath href="#arrow6" startOffset="50%" text-anchor="middle" class="a20"></textPath></text><g >

            <path id="arrow7" d="M 1634.75 1505 C 1634.75 1535, 1634.75 1525, 1634.75 1555 S 1634.75 1575, 1634.75 1605 " stroke="#000000ff" stroke-width="2" stroke-dasharray="5,5"  marker-end="url(#endarrow)" 
            fill="transparent" />

            </g>
<text><textPath href="#arrow7" startOffset="50%" text-anchor="middle" class="a20"></textPath></text><g >

            <path id="arrow8" d="M 1634.75 1730 C 1634.75 1760, 1634.75 1750, 1634.75 1780 S 1634.75 1800, 1634.75 1830 " stroke="#000000ff" stroke-width="2" stroke-dasharray="5,5"  marker-end="url(#endarrow)" 
            fill="transparent" />

            </g>
<text><textPath href="#arrow8" startOffset="50%" text-anchor="middle" class="a20"></textPath></text><g >

            <path id="arrow9" d="M 1634.75 1955 C 1634.75 1985, 1634.75 1975, 1634.75 2005 S 1634.75 2025, 1634.75 2055 " stroke="#000000ff" stroke-width="2" stroke-dasharray="5,5"  marker-end="url(#endarrow)" 
            fill="transparent" />

            </g>
<text><textPath href="#arrow9" startOffset="50%" text-anchor="middle" class="a20"></textPath></text><g >

            <path id="arrow10" d="M 1634.75 2180 C 1634.75 2210, 1634.75 2200, 1634.75 2230 S 1634.75 2250, 1634.75 2280 " stroke="#000000ff" stroke-width="2" stroke-dasharray="5,5"  marker-end="url(#endarrow)" 
            fill="transparent" />

            </g>
<text><textPath href="#arrow10" startOffset="50%" text-anchor="middle" class="a20"></textPath></text><g >

            <path id="arrow11" d="M 1732.8055555555557 2405 C 1758.10358960867 2421.1248092406536, 1811.25 2425, 1811.25 2455 S 1811.25 2537.5, 1811.25 2567.5 S 1811.25 2650, 1811.25 2680 S 1811.25 2700, 1811.25 2730 " stroke="#000000ff" stroke-width="2" stroke-dasharray="5,5"  marker-end="url(#endarrow)" 
            fill="transparent" />

            </g>
<text><textPath href="#arrow11" startOffset="50%" text-anchor="middle" class="a20"></textPath></text><g >

            <path id="arrow12" d="M 1427.5277777777778 2405 C 1398.8057365410286 2413.6628140459366, 1290.4720412367492 2446.3371859540634, 1261.75 2455 S 1074.2717886249022 2526.6781606786694, 1046.25 2537.391673746814 " stroke="#000000ff" stroke-width="2" stroke-dasharray="5,5"  marker-end="url(#endarrow)" 
            fill="transparent" />

            </g>
<text><textPath href="#arrow12" startOffset="50%" text-anchor="middle" class="a20"></textPath></text><g >

            <path id="arrow13" d="M 1811.25 2855 C 1811.25 2885, 1811.25 2875, 1811.25 2905 S 1707.088474377932 2944.3888122100257, 1679.0277777777778 2955 " stroke="#000000ff" stroke-width="2" stroke-dasharray="5,5"  marker-end="url(#endarrow)" 
            fill="transparent" />

            </g>
<text><textPath href="#arrow13" startOffset="50%" text-anchor="middle" class="a20"></textPath></text><g >

            <path id="arrow14" d="M 962.3611111111111 2630 C 985.2299334861812 2649.416924658078, 1021.25 2650, 1021.25 2680 S 1021.25 2700, 1021.25 2730 " stroke="#000000ff" stroke-width="2" stroke-dasharray="5,5"  marker-end="url(#endarrow)" 
            fill="transparent" />

            </g>
<text><textPath href="#arrow14" startOffset="50%" text-anchor="middle" class="a20"></textPath></text><g >

            <path id="arrow15" d="M 932.7083333333334 2855 C 908.1992974353905 2872.3004959279597, 886.3840358979429 2887.6995040720403, 861.875 2905 S 815.5507025646095 2937.6995040720403, 791.0416666666666 2955 " stroke="#000000ff" stroke-width="2" stroke-dasharray="5,5"  marker-end="url(#endarrow)" 
            fill="transparent" />

            </g>
<text><textPath href="#arrow15" startOffset="50%" text-anchor="middle" class="a20"></textPath></text><g >

            <path id="arrow16" d="M 1249.4444444444443 2855 C 1275.7070736262303 2869.500838198532, 1340 2875, 1340 2905 S 1340 2925, 1340 2955 " stroke="#000000ff" stroke-width="2" stroke-dasharray="5,5"  marker-end="url(#endarrow)" 
            fill="transparent" />

            </g>
<text><textPath href="#arrow16" startOffset="50%" text-anchor="middle" class="a20"></textPath></text><g >

            <path id="arrow17" d="M 1340 3080 C 1340 3110, 1340 3100, 1340 3130 S 1340 3150, 1340 3180 " stroke="#000000ff" stroke-width="2" stroke-dasharray="5,5"  marker-end="url(#endarrow)" 
            fill="transparent" />

            </g>
<text><textPath href="#arrow17" startOffset="50%" text-anchor="middle" class="a20"></textPath></text><g >

            <path id="arrow18" d="M 1340 3305 C 1340 3335, 1340 3325, 1340 3355 S 1340 3375, 1340 3405 " stroke="#000000ff" stroke-width="2" stroke-dasharray="5,5"  marker-end="url(#endarrow)" 
            fill="transparent" />

            </g>
<text><textPath href="#arrow18" startOffset="50%" text-anchor="middle" class="a20"></textPath></text><g >

            <path id="arrow19" d="M 1340 3530 C 1340 3560, 1340 3550, 1340 3580 S 1340 3600, 1340 3630 " stroke="#000000ff" stroke-width="2" stroke-dasharray="5,5"  marker-end="url(#endarrow)" 
            fill="transparent" />

            </g>
<text><textPath href="#arrow19" startOffset="50%" text-anchor="middle" class="a20"></textPath></text><g >

            <path id="arrow20" d="M 997.0833333333334 3755 C 969.8445517983198 3767.5717453238526, 916.3706356299649 3793.513372918052, 888.75 3805 S 806.0609943238782 3842.5859116709644, 778.75 3855 " stroke="#000000ff" stroke-width="2" stroke-dasharray="5,5"  marker-end="url(#endarrow)" 
            fill="transparent" />

            </g>
<text><textPath href="#arrow20" startOffset="50%" text-anchor="middle" class="a20"></textPath></text><g >

            <path id="arrow21" d="M 437.5 3980 C 437.5 4010, 437.5 4000, 437.5 4030 S 437.5 4050, 437.5 4080 " stroke="#000000ff" stroke-width="2" stroke-dasharray="5,5"  marker-end="url(#endarrow)" 
            fill="transparent" />

            </g>
<text><textPath href="#arrow21" startOffset="50%" text-anchor="middle" class="a20"></textPath></text><g >

            <path id="arrow22" d="M 731.25 2591.2835570469797 C 702.5311750364036 2599.9570276735694, 437.5 2650, 437.5 2680 S 437.5 2762.5, 437.5 2792.5 S 437.5 2875, 437.5 2905 S 437.5 2987.5, 437.5 3017.5 S 437.5 3100, 437.5 3130 S 437.5 3212.5, 437.5 3242.5 S 437.5 3325, 437.5 3355 S 437.5 3437.5, 437.5 3467.5 S 437.5 3550, 437.5 3580 S 437.5 3662.5, 437.5 3692.5 S 437.5 3775, 437.5 3805 S 437.5 3825, 437.5 3855 " stroke="#000000ff" stroke-width="2" stroke-dasharray="5,5" marker-start="url(#startarrow)"  
            fill="transparent" />

            </g>
<text><textPath href="#arrow22" startOffset="50%" text-anchor="middle" class="a20"></textPath></text></svg>